<svg t="1587806881667" class="icon" viewBox="0 0 1024 1024" version="1.1" xmlns="http://www.w3.org/2000/svg" p-id="2471" width="200" height="200"><path d="M383.1 934.7h-272v-832h800v416h-64v-352h-672v704h208z" p-id="2472"></path><path d="M303.1 326.7h416v64h-416zM304 502.7h224v64H304zM791.1 930.6h-192v-64h192c48.5 0 88-39.5 88-88s-39.5-88-88-88h-144v-64h144c83.8 0 152 68.2 152 152s-68.2 152-152 152z" p-id="2473"></path><path d="M732.3 794.4L596.6 658.6l135.7-135.7 45.3 45.2-90.5 90.5 90.5 90.5z" p-id="2474"></path></svg>