<svg t="1595512206253" class="icon" viewBox="0 0 1066 1024" version="1.1" xmlns="http://www.w3.org/2000/svg" p-id="2166" width="200" height="200"><path d="M731.396169 12.661577C712.997524-4.216078 683.111401-4.216078 664.752782 12.661577l-152.099023 139.66426L360.434658 12.661577C342.036013-4.216078 312.203257-4.216078 293.79127 12.661577c-18.398645 16.890997-18.398645 44.268821 0 61.159817l184.640209 169.443648a52.447479 52.447479 0 0 0 68.31114 0l184.640208-169.443648C749.821498 56.943739 749.821498 29.552573 731.396169 12.661577z" fill="#2c2c2c" p-id="2167"></path><path d="M1012.819388 170.110749H53.368078a53.368078 53.368078 0 0 0-53.368078 53.368078v747.153095a53.368078 53.368078 0 0 0 53.368078 53.368078h959.45131a53.368078 53.368078 0 0 0 53.368078-53.368078v-747.153095a53.368078 53.368078 0 0 0-53.368078-53.368078zM808.206176 885.323049a53.368078 53.368078 0 0 1-53.368078 53.368078H138.583557a53.368078 53.368078 0 0 1-53.368078-53.368078V309.321381a53.368078 53.368078 0 0 1 53.368078-53.368078h616.254541a53.368078 53.368078 0 0 1 53.368078 53.368078z" fill="#2c2c2c" p-id="2168"></path><path d="M936.809902 298.514345m-42.694462 0a42.694463 42.694463 0 1 0 85.388925 0 42.694463 42.694463 0 1 0-85.388925 0Z" fill="#2c2c2c" p-id="2169"></path><path d="M936.809902 470.719792m-42.694462 0a42.694463 42.694463 0 1 0 85.388925 0 42.694463 42.694463 0 1 0-85.388925 0Z" fill="#2c2c2c" p-id="2170"></path><path d="M343.557003 717.98744V494.668717c0-32.741316 33.755309-52.954476 60.252561-36.090163l174.086671 110.738762c25.603336 16.290606 25.736756 55.542827 0.240156 72.046905l-174.073329 112.566619c-26.483909 17.131153-60.506059-3.055322-60.506059-35.9434z" fill="#2c2c2c" p-id="2171"></path></svg>